<?xml version="1.0" encoding="utf-8"?>
<!-- Generator: Adobe Illustrator 24.1.1, SVG Export Plug-In . SVG Version: 6.00 Build 0)  -->
<svg version="1.1" id="light" xmlns="http://www.w3.org/2000/svg" xmlns:xlink="http://www.w3.org/1999/xlink" x="0px" y="0px"
	 viewBox="0 0 512 512" style="enable-background:new 0 0 512 512;" xml:space="preserve">
<style type="text/css">
	.st0{fill:#4563AC;}
</style>
<path class="st0" d="M256,64c-5.9,0-10.7-4.8-10.7-10.7V10.7C245.3,4.8,250.1,0,256,0s10.7,4.8,10.7,10.7v42.7
	C266.7,59.2,261.9,64,256,64z"/>
<path class="st0" d="M399.3,123.3c-2.7,0-5.5-1-7.6-3.1c-4.2-4.2-4.2-10.9,0-15.1L421.9,75c4.2-4.2,10.9-4.2,15.1,0
	c4.2,4.2,4.2,10.9,0,15.1l-30.2,30.2C404.8,122.3,402,123.3,399.3,123.3z"/>
<path class="st0" d="M501.3,266.7h-42.7c-5.9,0-10.7-4.8-10.7-10.7s4.8-10.7,10.7-10.7h42.7c5.9,0,10.7,4.8,10.7,10.7
	S507.2,266.7,501.3,266.7z"/>
<path class="st0" d="M429.5,440.1c-2.7,0-5.5-1-7.6-3.1l-30.2-30.2c-4.2-4.2-4.2-10.9,0-15.1s10.9-4.2,15.1,0L437,422
	c4.2,4.2,4.2,10.9,0,15.1C434.9,439.1,432.2,440.1,429.5,440.1z"/>
<path class="st0" d="M256,512c-5.9,0-10.7-4.8-10.7-10.7v-42.7c0-5.9,4.8-10.7,10.7-10.7s10.7,4.8,10.7,10.7v42.7
	C266.7,507.2,261.9,512,256,512z"/>
<path class="st0" d="M82.5,440.1c-2.7,0-5.5-1-7.6-3.1c-4.2-4.2-4.2-10.9,0-15.1l30.2-30.2c4.2-4.2,10.9-4.2,15.1,0
	c4.2,4.2,4.2,10.9,0,15.1L90,437C88,439.1,85.2,440.1,82.5,440.1z"/>
<path class="st0" d="M53.3,266.7H10.7C4.8,266.7,0,261.9,0,256s4.8-10.7,10.7-10.7h42.7c5.9,0,10.7,4.8,10.7,10.7
	S59.2,266.7,53.3,266.7z"/>
<path class="st0" d="M112.7,123.3c-2.7,0-5.5-1-7.6-3.1L75,90.1c-4.2-4.2-4.2-10.9,0-15.1c4.2-4.2,10.9-4.2,15.1,0l30.2,30.2
	c4.2,4.2,4.2,10.9,0,15.1C118.1,122.3,115.4,123.3,112.7,123.3L112.7,123.3z"/>
<path class="st0" d="M225.6,426.7c-1.3,0-2.5-0.2-3.7-0.7c-4.7-1.7-7.5-6.5-6.8-11.4l18.2-137.3H160c-4,0-7.7-2.3-9.5-5.9
	c-1.8-3.6-1.4-7.9,1-11.2l128-170.7c3-4,8.2-5.4,12.7-3.4c4.5,1.9,7.1,6.7,6.3,11.6l-19.3,115.6H352c3.9,0,7.5,2.2,9.4,5.6
	c1.9,3.5,1.7,7.6-0.5,10.9l-126.4,192C232.4,424.9,229.1,426.7,225.6,426.7L225.6,426.7z M181.3,256h64c3.1,0,6,1.3,8,3.6
	c2,2.3,3,5.4,2.6,8.4l-13.7,103.2l90-136.6h-65.5c-3.1,0-6.1-1.4-8.1-3.8c-2-2.4-2.9-5.6-2.4-8.6l14.1-84.9L181.3,256z"/>
</svg>
