<?xml version="1.0" encoding="utf-8"?>
<!-- Generator: Adobe Illustrator 24.1.1, SVG Export Plug-In . SVG Version: 6.00 Build 0)  -->
<svg version="1.1" id="Capa_1" xmlns="http://www.w3.org/2000/svg" xmlns:xlink="http://www.w3.org/1999/xlink" x="0px" y="0px"
	 viewBox="0 0 512 512" style="enable-background:new 0 0 512 512;" xml:space="preserve">
<style type="text/css">
	.st0{fill:#4563AC;}
</style>
<g>
	<path class="st0" d="M466,31c-12.7,0-22.7,5-30,11.4C428.7,36,418.7,31,406,31c-7.5,0-14.6,1.9-20.8,5.2C345.3,12.5,300.8,0,256,0
		C115.2,0,0,115.3,0,256c0,8.3,6.7,15,15,15s15-6.7,15-15C30,131.4,131.4,30,256,30c37.5,0,74.9,10,108.9,29.1
		c-2.5,6-3.9,12.7-3.9,19.8c0,27.8,20.8,45.6,49.7,70.1c4.9,4.2,10,8.5,15.4,13.3c2.8,2.5,6.4,3.7,9.9,3.7s7-1.2,9.9-3.7
		c6-5.3,11.7-10.1,17.2-14.8c28.4-24,48.9-41.3,48.9-68.7C512,52.9,492.2,31,466,31L466,31z M443.8,124.6c-2.5,2.1-5.1,4.3-7.7,6.6
		c-2-1.7-3.9-3.4-5.9-5c-25.7-21.9-39.2-34-39.2-47.3c0-8.9,5.2-17.9,15-17.9c10.5,0,15.6,10.6,16.2,11.8c2.2,5.8,7.7,9.6,13.8,9.6
		s11.6-3.8,13.8-9.6c0.5-1.2,5.7-11.8,16.2-11.8c9,0,16,7.9,16,17.9C482,91.7,468.9,103.4,443.8,124.6z"/>
	<path class="st0" d="M497,241c-8.3,0-15,6.7-15,15c0,124.6-101.4,226-226,226c-45.3,0-90.4-14.6-128.5-41.4
		c14.4-14.4,23.5-28.4,23.5-46.7c0-26.8-19.8-47.9-45-47.9c-12.7,0-22.7,5-30,11.4C68.7,351,58.7,346,46,346
		c-26.2,0-46,21.9-46,47.9c0,27.4,20.5,44.7,48.9,68.7c5.5,4.7,11.2,9.5,17.2,14.8c2.8,2.5,6.4,3.7,9.9,3.7s7.1-1.2,9.9-3.7
		c6.6-5.8,12.6-10.9,18.8-16.2C149,494,202.3,512,256,512c140.8,0,256-115.3,256-256C512,247.7,505.3,241,497,241z M81.8,441.2
		c-1.9,1.6-3.9,3.3-5.9,5c-2.6-2.2-5.2-4.4-7.7-6.6C43.1,418.4,30,406.7,30,393.9c0-10,7-17.9,16-17.9c10.5,0,15.6,10.6,16.2,11.8
		c2.2,5.8,7.7,9.6,13.8,9.6s11.6-3.8,13.8-9.6c0.5-1.2,5.7-11.8,16.2-11.8c9.8,0,15,9,15,17.9C121,407.2,107.6,419.3,81.8,441.2z"/>
	<path class="st0" d="M256,391c74.4,0,135-60.6,135-135c0-75-61.2-135-135-135c-80.1,0-135,65.7-135,135
		C121,330.4,181.6,391,256,391z M357.3,283.6c-3.6-7.4-9.6-12.5-16.2-16.6l0.5-0.5c5.9-5.9,5.9-15.4,0-21.2
		c-9.3-9.3-23.6-18.5-37.8-25c10.3-4.1,25.5-7.7,47.4-8.5c6.3,13.4,9.8,28.4,9.8,44.2C361,265.6,359.7,274.8,357.3,283.6
		L357.3,283.6z M208.5,162.4l8.9,6l-15.3,15.3c-14.2,7-24.3,11.4-30.3,21.4c-2.8,4.6-4.3,9.6-5,15.5c-1.8-1.7-4-3.9-6.9-6.8
		C169.7,191.5,187,173.3,208.5,162.4L208.5,162.4z M151.4,246.7c4.7,3.7,9.4,6.3,15.3,7.7c3.3,28.7,17.8,42.7,43.4,67.4
		c6,5.7,12.7,12.2,20.3,19.8c4.2,4.2,10.7,5.6,16.3,3.3c5.6-2.3,9.3-7.8,9.3-13.8c0-16.3,3.8-42.6,10.6-49.4
		c6.7-6.7,5.6-17.8-2.3-23.1c-8.5-5.7-15.3-10.3-20.8-14.1c-24.1-16.5-28.1-18.9-47.1-18.6c0.2-2.4,0.5-4.4,1-5.2
		c1.2-2.1,12-7.1,20.2-11.2c1.4-0.7,2.8-1.7,3.9-2.8l30-30c3.2-3.2,4.8-7.6,4.3-12.1c-0.4-4.5-2.9-8.5-6.6-11l-3.1-2.1
		c3.2-0.3,6.5-0.5,9.8-0.5c29.7,0,56.5,12.4,75.6,32.3c-57.3,6.7-72.3,32.6-74,35.9c-2.4,4.6-2.2,10.2,0.6,14.7
		c2.7,4.5,7.6,7.2,12.8,7.2c6.6,0,23.9,7.2,37.6,16.2l-3.2,3.2c-3.4,3.4-5,8.3-4.2,13c0.8,4.8,3.8,8.9,8.1,11
		c18.5,9.2,21.7,9.7,21.7,16.6v28.4c-19.1,19.5-45.6,31.6-75,31.6c-57.9,0-105-47.1-105-105C151,252.9,151.1,249.8,151.4,246.7
		L151.4,246.7z M197.2,255.8c5.6-0.1,7.5,0.1,9.4,0.8c3.6,1.4,9.8,5.6,20,12.6c2.7,1.9,5.7,3.9,9.1,6.2c-3.1,7.2-5.2,15.2-6.7,23
		C208.5,278.6,200,270.1,197.2,255.8L197.2,255.8z"/>
</g>
</svg>
