<?xml version="1.0" encoding="utf-8"?>
<!-- Generator: Adobe Illustrator 24.1.1, SVG Export Plug-In . SVG Version: 6.00 Build 0)  -->
<svg version="1.1" id="Capa_1" xmlns="http://www.w3.org/2000/svg" xmlns:xlink="http://www.w3.org/1999/xlink" x="0px" y="0px"
	 viewBox="0 0 512 512" style="enable-background:new 0 0 512 512;" xml:space="preserve">
<style type="text/css">
	.st0{fill:#4563AC;}
</style>
<g>
	<g>
		<path class="st0" d="M472.7,121.1c4.5-7.3,7.3-15.8,7.3-25.1c0-26.5-21.5-48-48-48c-7.6,0-14.6,1.9-21,5C366.2,18.4,313,0,256,0
			C114.8,0,0,114.8,0,256s114.8,256,256,256s256-114.8,256-256C512,207.8,498.1,161.6,472.7,121.1z M432,80c8.8,0,16,7.2,16,16
			s-7.2,16-16,16s-16-7.2-16-16S423.2,80,432,80z M256,480C132.5,480,32,379.5,32,256S132.5,32,256,32c48.5,0,93.7,15.8,132.2,44.5
			c-2.7,6-4.2,12.5-4.2,19.5c0,26.5,21.5,48,48,48c5.5,0,10.7-1.1,15.6-2.8C468.4,175.8,480,215.1,480,256
			C480,379.5,379.5,480,256,480z"/>
	</g>
</g>
<g>
	<g>
		<path class="st0" d="M256,128c-35.3,0-64,28.7-64,64s28.7,64,64,64s64-28.7,64-64S291.3,128,256,128z M256,224
			c-17.6,0-32-14.4-32-32s14.4-32,32-32s32,14.4,32,32S273.6,224,256,224z"/>
	</g>
</g>
<g>
	<g>
		<path class="st0" d="M288,256h-32h-32c-35.3,0-64,28.7-64,64v48c0,8.8,7.2,16,16,16h160c8.8,0,16-7.2,16-16v-48
			C352,284.7,323.3,256,288,256z M320,352H192v-32c0-17.6,14.4-32,32-32h64c17.6,0,32,14.4,32,32V352z"/>
	</g>
</g>
</svg>
